HIERARCHY
ROOT Hips
{
  OFFSET 32.7153 104.632 -28.08
  CHANNELS 6 Xposition Yposition Zposition Zrotation Xrotation Yrotation
  JOINT RightUpLeg
  {
    OFFSET -8.9458 -8.66707 0.101652
    CHANNELS 3 Zrotation Xrotation Yrotation
    JOINT RightLeg
    {
      OFFSET 0 -44.4227 1.3727
      CHANNELS 3 Zrotation Xrotation Yrotation
      JOINT RightFoot
      {
        OFFSET 0.253549 -42.0924 -1.46059
        CHANNELS 3 Zrotation Xrotation Yrotation
        JOINT RightToes
        {
          OFFSET 0.04 -4.41509 8.4991
          CHANNELS 3 Zrotation Xrotation Yrotation
          End Site
          {
            OFFSET -0.08 -0.137448 9.77979
          }
        }
      }
    }
  }
  JOINT Spine
  {
    OFFSET 0 11.8905 0
    CHANNELS 3 Zrotation Xrotation Yrotation
    JOINT Spine1
    {
      OFFSET 0 25.6574 0.127663
      CHANNELS 3 Zrotation Xrotation Yrotation
      JOINT HEad
      {
        OFFSET 0 8.73416 0.011341
        CHANNELS 3 Zrotation Xrotation Yrotation
        End Site
        {
          OFFSET -0.29 12.7742 2.51395
        }
      }
      JOINT LeftShoulder1
      {
        OFFSET 8.99 -0.362252 -0.22
        CHANNELS 3 Zrotation Xrotation Yrotation
        JOINT LeftArm
        {
          OFFSET 10.2827 -0.00338 0.322123
          CHANNELS 3 Zrotation Xrotation Yrotation
          JOINT LeftForeArm
          {
            OFFSET 32.7669 0.099144 -1.42434
            CHANNELS 3 Zrotation Xrotation Yrotation
            JOINT LeftHand
            {
              OFFSET 27.5643 0.085362 1.02216
              CHANNELS 3 Zrotation Xrotation Yrotation
              End Site
              {
                OFFSET 16.7443 -0.6 1.50291
              }
            }
          }
        }
      }
      JOINT RightShoulder
      {
        OFFSET -8.99 -0.362252 -0.22
        CHANNELS 3 Zrotation Xrotation Yrotation
        JOINT RightArm
        {
          OFFSET -10.2827 -0.00338 0.322123
          CHANNELS 3 Zrotation Xrotation Yrotation
          JOINT RightForeArm
          {
            OFFSET -32.8971 0.099144 -1.42434
            CHANNELS 3 Zrotation Xrotation Yrotation
            JOINT RightHand
            {
              OFFSET -30.0137 1.42257 -0.284231
              CHANNELS 3 Zrotation Xrotation Yrotation
              End Site
              {
                OFFSET -16.6312 -0.6 1.50291
              }
            }
          }
        }
      }
    }
  }
  JOINT LeftUpLeg
  {
    OFFSET 8.9458 -8.66707 0.101652
    CHANNELS 3 Zrotation Xrotation Yrotation
    JOINT LeftLeg
    {
      OFFSET 0 -44.4227 1.3727
      CHANNELS 3 Zrotation Xrotation Yrotation
      JOINT LeftFoot
      {
        OFFSET -0.253549 -42.0924 -1.46059
        CHANNELS 3 Zrotation Xrotation Yrotation
        JOINT LeftToes
        {
          OFFSET -0.04 -4.41509 8.4991
          CHANNELS 3 Zrotation Xrotation Yrotation
          End Site
          {
            OFFSET 0.08 -0.047448 9.77979
          }
        }
      }
    }
  }
}
MOTION
Frames:	12
Frame Time:	0.0166667
23.2849 102.424 -30.9959 6.92213 10.8847 156.004 -33.6315 15.5719 13.1293 35.9591 6.26751 -24.4286 -18.6975 8.70174 -2.27037 0.0462048 0.000533403 0.662642 -6.85974 26.802 0.267544 -0.160414 0.147869 -0.0416804 -18.5618 24.4637 19.7883 2.38542e-015 -1.59028e-015 -0 -174.009 -57.6784 -143.248 -94.1686 69.9385 -20.9354 17.1179 18.3527 -9.09784 16.6917 9.20139 -2.65995 105.555 7.61999 86.9035 21.3463 33.0135 68.6213 18.2772 28.8485 4.0828 3.42738 11.4937 -20.0011 -11.1418 -2.31081 63.7048 -36.7969 1.51306 -2.90575 -9.35094e-009 1.56019e-007 -4.87132e-009 
22.7584 102.361 -30.8861 7.38039 10.6019 155.679 -34.7589 13.2311 16.1271 39.726 6.12999 -26.7206 -20.3052 8.38752 -2.1882 0.0462048 0.000533403 0.662642 -6.2737 26.651 1.36547 -0.155529 0.143187 -0.0390812 -17.5154 23.9014 18.3217 8.82781e-032 1.59028e-015 -3.18055e-015 -171.717 -57.2468 -140.708 -93.5708 70.3065 -21.3617 17.2631 18.365 -8.95039 16.6826 9.14214 -3.51176 106.11 7.03496 86.9844 21.1181 33.9911 69.8522 18.3124 28.4357 3.89709 4.01083 11.7103 -16.9591 -11.3386 -2.38855 61.3569 -38.2132 1.6211 -2.6271 -9.35094e-009 1.56019e-007 -4.87131e-009 
22.2781 102.437 -30.6775 7.80305 10.2954 155.397 -34.8823 10.8478 18.4485 41.8107 6.75055 -28.9956 -21.0015 7.82696 -2.17519 0.0462048 0.000533403 0.662642 -5.74838 26.4942 2.28102 -0.150572 0.138441 -0.0375663 -16.5361 23.3343 17.0212 -1.59028e-015 1.59028e-015 -3.18055e-015 -169.862 -56.7004 -138.686 -93.0815 70.69 -21.727 17.3588 18.4813 -8.79841 16.6799 9.10892 -4.09633 106.627 6.42385 87.1205 20.823 34.9494 71.1058 18.3772 28.1956 3.72935 4.69275 11.5319 -14.1134 -12.1845 -2.45801 59.1044 -36.0981 1.32464 -2.59391 -9.35095e-009 1.56019e-007 -4.87132e-009 
21.8624 102.549 -30.3946 8.18213 9.97574 155.177 -34.45 8.59714 20.3408 42.9744 7.85053 -31.2727 -21.0849 7.0516 -2.1277 0.0462048 0.000533403 0.662642 -5.27386 26.3352 3.01613 -0.145553 0.133637 -0.0364172 -15.6267 22.7795 15.8733 1.59028e-015 0 6.36111e-015 -168.395 -56.0715 -137.101 -92.6897 71.0861 -22.0298 17.4903 18.4742 -8.578 16.6755 9.09451 -4.44355 107.112 5.79199 87.3075 20.4489 35.8851 72.3804 18.3764 27.8301 3.58504 5.34378 11.3741 -11.5533 -12.7894 -2.52277 57.002 -34.0692 1.12234 -2.46641 -9.35095e-009 1.56019e-007 -4.87131e-009 
21.5166 102.687 -30.0504 8.51314 9.65494 155.031 -33.7781 6.78799 22.0017 43.5736 8.75095 -33.1938 -20.9513 6.4063 -2.09161 0.0462048 0.000533403 0.662642 -4.84179 26.1786 3.5779 -0.140484 0.128785 -0.0355491 -14.789 22.2526 14.8648 1.59028e-015 1.59028e-015 -6.36111e-015 -167.264 -55.3897 -135.876 -92.4 71.4904 -22.2564 17.6042 18.5147 -8.35283 16.6643 9.09147 -4.59009 107.569 5.14855 87.532 19.986 36.7987 73.6735 18.3867 27.5576 3.46413 5.9202 11.091 -9.25558 -13.2019 -2.34789 55.0563 -32.1887 0.928804 -2.32851 -9.35095e-009 1.56019e-007 -4.87131e-009 
21.2471 102.842 -29.6572 8.79432 9.34544 154.966 -32.9859 5.42071 23.4867 43.7854 9.39436 -34.7313 -20.7084 5.90739 -2.0702 0.0462048 0.000533403 0.662642 -4.4466 26.0276 3.97776 -0.135373 0.123894 -0.034877 -14.024 21.7681 13.9834 0 1.59028e-015 -0 -166.425 -54.6831 -134.941 -92.2194 71.8953 -22.3939 17.7482 18.4769 -8.09129 16.6382 9.09148 -4.56977 108.003 4.49975 87.7746 19.4302 37.6891 74.9821 18.3554 27.2033 3.3766 6.39073 10.4066 -7.16418 -13.4589 -1.39781 53.288 -30.6454 0.586424 -2.29698 -9.35094e-009 1.56019e-007 -4.87131e-009 
21.058 103.001 -29.2246 9.02521 9.05849 154.985 -32.1362 4.44703 24.8141 43.7281 9.80642 -35.9201 -20.4409 5.52543 -2.05713 0.0462048 0.000533403 0.662642 -4.08656 25.8837 4.23025 -0.130232 0.118974 -0.0343163 -13.3316 21.3387 13.2181 7.95139e-016 -3.18055e-015 -3.18055e-015 -165.836 -53.9786 -134.237 -92.1422 72.2956 -22.4442 17.878 18.4752 -7.83221 16.5835 9.09383 -4.41118 108.422 3.84963 88.0141 18.7805 38.5559 76.3041 18.3355 26.8945 3.31442 6.83694 9.78755 -5.40236 -13.5962 -0.667078 51.6684 -29.0124 0.312631 -2.21173 -9.35095e-009 1.56019e-007 -4.87131e-009 
20.9507 103.151 -28.7596 9.20573 8.80358 155.086 -31.2762 3.8189 25.9921 43.4867 10.0013 -36.8081 -20.1906 5.23275 -2.04681 0.0462048 0.000533403 0.662642 -3.76385 25.7473 4.35193 -0.12507 0.114034 -0.0337821 -12.7105 20.9743 12.5598 -7.95139e-016 -1.59028e-015 -0 -165.451 -53.2994 -133.702 -92.1225 72.6919 -22.4484 18.0103 18.4503 -7.56095 16.4848 9.09901 -4.14326 108.837 3.20621 88.2314 18.0414 39.3954 77.6375 18.2886 26.5348 3.28717 7.24569 9.22551 -3.95434 -13.6355 -0.128758 50.189 -27.3011 0.105965 -2.08333 -9.35095e-009 1.56019e-007 -4.87132e-009 
20.9247 103.278 -28.2668 9.33473 8.58869 155.263 -30.4376 3.48117 27.0218 43.1189 10.0097 -37.4571 -19.9705 5.00279 -2.03527 0.0462048 0.000533403 0.662642 -3.48632 25.6187 4.36089 -0.119899 0.109085 -0.0331897 -12.1579 20.6812 12.0015 7.95139e-016 1.59028e-015 -0 -165.226 -52.663 -133.286 -92.1089 73.0925 -22.4528 18.1181 18.4617 -7.29155 16.3315 9.10837 -3.80177 109.253 2.58506 88.4098 17.2205 40.2068 78.9802 18.2502 26.2064 3.28055 7.61043 8.70997 -2.80087 -13.5989 0.252595 48.8449 -25.5274 -0.0376743 -1.92293 -9.35095e-009 1.56019e-007 -4.87132e-009 
20.976 103.372 -27.7504 9.4112 8.41969 155.508 -29.6409 3.38375 27.9014 42.6566 9.85895 -37.9291 -19.7764 4.81364 -2.02023 0.0462048 0.000533403 0.662642 -3.26218 25.4981 4.27588 -0.114728 0.104136 -0.0324542 -11.6694 20.4638 11.5357 2.38542e-015 0 -0 -165.13 -52.0795 -132.951 -92.0732 73.5033 -22.4841 18.2037 18.4685 -7.02479 16.1455 9.12187 -3.42226 109.651 1.99497 88.5354 16.333 40.9903 80.3286 18.173 25.851 3.30597 7.92854 8.23232 -1.92228 -13.5065 0.508324 47.6351 -23.7054 -0.122214 -1.74015 -9.35094e-009 1.56019e-007 -4.87132e-009 
21.0993 103.432 -27.2137 9.4357 8.3004 155.811 -28.8974 3.48312 28.6299 42.1173 9.57384 -38.2798 -19.6037 4.64838 -2.00053 0.0462048 0.000533403 0.662642 -3.09702 25.3852 4.11721 -0.109568 0.0991966 -0.031612 -11.2401 20.3254 11.153 -1.59028e-015 -1.59028e-015 3.18055e-015 -165.144 -51.5542 -132.684 -92.0326 73.9205 -22.5291 18.2513 18.487 -6.7663 15.9755 9.12905 -3.04102 109.993 1.43387 88.5903 15.4011 41.7503 81.6774 18.0848 25.5164 3.34697 8.20108 7.78799 -1.29914 -13.3778 0.661812 46.5623 -21.845 -0.151022 -1.54291 -9.35095e-009 1.56019e-007 -4.87131e-009 
21.2899 103.455 -26.6586 9.41024 8.2335 156.163 -28.2133 3.74122 29.2111 41.5161 9.17819 -38.5559 -19.4488 4.49366 -1.97529 0.0462048 0.000533403 0.662642 -2.99503 25.2784 3.90813 -0.104427 0.0942765 -0.030798 -10.8654 20.2694 10.8414 7.95139e-016 1.59028e-015 3.18055e-015 -165.259 -51.0919 -132.475 -92.0398 74.3318 -22.5435 18.2738 18.4836 -6.5134 15.8768 9.11489 -2.69489 110.233 0.891255 88.5527 14.4495 42.4919 83.0215 17.9765 25.1734 3.40435 8.43156 7.37631 -0.911155 -13.2307 0.729443 45.6303 -19.9528 -0.126013 -1.33722 -9.35094e-009 1.56019e-007 -4.87131e-009 
